<svg viewBox="280 365 985 225" version="1.1" xmlns="http://www.w3.org/2000/svg" preserveAspectRatio="xMidYMid meet">
  <g id="orange-layer">
    <path fill="#dc624f" opacity="1.00" d=" M 420.13 374.49 C 438.87 370.55 458.20 368.92 477.29 370.77 C 488.98 372.30 501.71 373.49 511.22 381.20 C 471.66 381.60 432.70 393.32 398.00 412.00 C 381.11 421.31 364.94 432.68 352.91 447.95 C 343.63 459.34 337.44 474.08 339.43 488.98 C 340.52 501.37 348.75 511.45 357.53 519.58 C 345.41 516.40 333.64 511.18 324.18 502.82 C 312.42 492.71 304.34 477.72 304.39 462.02 C 304.49 447.66 310.76 433.84 320.15 423.17 C 328.98 413.66 339.97 406.55 350.98 399.85 C 372.35 387.50 395.87 378.97 420.13 374.49 Z" />
    <path fill="#dc624f" opacity="1.00" d=" M 283.63 520.34 C 274.59 495.89 282.70 468.37 297.41 447.91 C 297.35 449.28 297.22 450.65 296.86 451.97 C 293.27 465.45 294.46 480.38 301.26 492.68 C 310.04 510.54 327.53 522.31 345.70 529.19 C 351.30 531.36 357.05 533.18 363.01 534.03 C 387.53 539.78 413.12 539.13 437.88 535.23 C 458.15 531.64 478.13 525.81 496.70 516.84 C 502.81 514.14 508.43 510.45 514.55 507.77 C 507.86 514.79 499.80 520.22 491.98 525.85 C 462.50 545.78 428.86 559.30 394.01 566.29 C 375.28 570.12 356.10 570.10 337.08 569.42 C 327.73 565.91 318.82 561.03 310.69 555.23 C 298.67 546.42 288.92 534.31 283.63 520.34 Z" />
  </g>
  <g id="blue-layer">
    <path fill="#ffffff" opacity="1.00" d=" M 433.13 422.83 C 462.77 410.49 495.05 402.36 527.33 405.70 C 531.40 408.46 536.10 410.10 540.16 412.89 C 551.32 420.00 557.93 434.05 555.07 447.15 C 551.84 462.97 540.56 475.77 528.31 485.62 C 532.48 476.98 534.71 466.41 530.61 457.33 C 527.22 449.26 519.98 443.52 512.32 439.73 C 497.05 432.49 479.68 431.64 463.07 432.54 C 438.11 434.42 413.56 441.15 391.05 452.07 C 387.36 453.78 383.94 456.09 380.06 457.38 C 394.90 442.09 413.62 431.09 433.13 422.83 Z" />
    <path fill="#ffffff" opacity="1.00" d=" M 539.61 405.85 C 543.69 406.85 547.84 407.53 551.98 408.27 C 567.87 411.91 583.70 420.73 591.44 435.63 C 597.84 447.00 598.19 460.82 595.15 473.26 C 590.91 489.52 581.87 504.22 570.62 516.56 C 551.03 538.25 525.48 553.67 498.65 564.74 C 483.26 570.88 467.22 575.25 451.02 578.68 C 425.36 583.44 398.84 584.24 373.06 579.86 C 360.77 577.62 348.45 574.69 337.08 569.42 C 356.10 570.10 375.28 570.12 394.01 566.29 C 428.86 559.30 462.50 545.78 491.98 525.85 C 499.80 520.22 507.86 514.79 514.55 507.77 C 529.79 498.12 544.01 486.44 554.69 471.77 C 561.55 461.60 567.12 449.50 565.62 436.93 C 564.83 427.20 558.96 418.46 551.01 413.02 C 547.47 410.20 543.11 408.69 539.61 405.85 Z" />
    <path fill="#ffffff" opacity="1.00" d=" M 869.67 420.38 C 875.88 420.39 882.11 420.32 888.33 420.29 C 888.08 444.67 888.20 469.05 888.31 493.43 C 894.76 486.53 901.89 480.30 908.50 473.54 C 912.89 469.00 917.34 464.50 921.96 460.18 C 929.14 460.14 936.32 460.26 943.51 460.16 C 932.25 471.75 920.46 482.82 908.99 494.21 C 920.62 507.05 933.22 518.98 945.22 531.47 C 937.46 531.52 929.71 531.70 921.96 531.54 C 910.66 519.45 899.41 507.31 888.14 495.19 C 888.33 507.29 888.19 519.39 888.23 531.49 C 882.03 531.58 875.82 531.53 869.62 531.61 C 869.85 494.53 869.58 457.45 869.67 420.38 Z" />
    <path fill="#ffffff" opacity="1.00" d=" M 752.49 421.73 C 756.83 420.42 762.01 421.32 765.12 424.80 C 769.61 429.75 768.86 438.42 763.28 442.25 C 757.42 446.75 747.62 443.81 745.51 436.66 C 743.25 430.89 746.45 423.53 752.49 421.73 Z" />
    <path fill="#ffffff" opacity="1.00" d=" M 955.68 426.34 C 962.37 426.41 969.05 426.38 975.74 426.48 C 989.78 445.98 1003.86 465.47 1017.91 484.98 C 1020.89 488.96 1024.03 492.87 1026.33 497.32 C 1026.22 473.70 1026.31 450.09 1026.25 426.47 C 1032.29 426.42 1038.33 426.41 1044.37 426.46 C 1044.30 461.47 1044.34 496.49 1044.24 531.51 C 1039.07 531.53 1033.92 531.48 1028.76 531.44 C 1016.47 514.64 1004.25 497.78 992.08 480.89 C 986.06 472.35 979.56 464.16 973.72 455.49 C 974.58 467.65 974.00 479.85 974.19 492.03 C 974.25 505.19 974.13 518.35 974.27 531.50 C 968.14 531.50 962.00 531.69 955.87 531.50 C 955.57 496.45 955.90 461.39 955.68 426.34 Z" />
    <path fill="#ffffff" opacity="1.00" d=" M 662.62 426.51 C 669.01 426.53 675.40 426.40 681.80 426.52 C 681.91 440.70 681.74 454.87 681.90 469.04 C 682.44 475.36 681.76 481.68 681.85 488.00 C 681.88 497.52 681.83 507.03 681.82 516.54 C 699.13 516.92 716.47 516.68 733.80 516.77 C 733.74 521.70 733.73 526.63 733.87 531.55 C 710.12 531.56 686.37 531.52 662.62 531.57 C 662.78 496.55 662.61 461.53 662.62 426.51 Z" />
    <path fill="#ffffff" opacity="1.00" d=" M 1212.48 438.78 C 1218.82 438.63 1225.05 437.37 1231.33 436.59 C 1231.33 444.62 1231.22 452.65 1231.38 460.68 C 1238.51 460.62 1245.65 460.67 1252.80 460.62 C 1252.79 465.05 1252.83 469.48 1252.80 473.91 C 1245.67 473.81 1238.55 473.88 1231.44 473.88 C 1231.30 486.14 1231.26 498.40 1231.39 510.66 C 1231.35 514.55 1233.45 518.58 1237.32 519.84 C 1243.34 522.07 1249.58 518.62 1254.29 515.02 C 1255.95 518.02 1257.55 521.06 1259.29 524.03 C 1252.21 530.43 1242.63 534.21 1233.03 532.90 C 1226.75 532.29 1219.88 530.21 1216.30 524.61 C 1211.89 518.32 1212.44 510.30 1212.45 503.01 C 1212.46 493.42 1212.45 483.83 1212.46 474.25 C 1208.86 474.14 1205.28 473.95 1201.70 473.87 C 1201.62 469.41 1201.74 464.95 1201.74 460.49 C 1205.37 460.53 1209.02 460.53 1212.67 460.60 C 1212.61 453.33 1212.62 446.05 1212.48 438.78 Z" />
    <path fill="#ffffff" opacity="1.00" d=" M 801.72 470.75 C 808.27 463.32 817.90 458.30 827.97 458.75 C 836.58 458.56 845.45 462.57 850.02 470.05 C 854.04 476.57 854.38 484.51 854.19 491.96 C 854.10 505.13 854.14 518.31 854.17 531.48 C 848.05 531.56 841.93 531.58 835.81 531.49 C 835.84 518.66 835.79 505.82 835.79 492.99 C 835.96 486.65 835.42 479.12 829.96 474.95 C 823.79 470.86 815.07 471.89 809.45 476.49 C 804.39 480.30 802.58 486.96 802.58 493.03 C 802.49 505.87 802.66 518.71 802.50 531.56 C 796.45 531.43 790.39 531.54 784.34 531.52 C 784.33 507.77 784.26 484.01 784.33 460.26 C 789.59 460.24 794.85 460.24 800.12 460.28 C 800.42 463.80 801.15 467.26 801.72 470.75 Z" />
    <path fill="#ffffff" opacity="1.00" d=" M 1063.76 475.55 C 1073.59 459.53 1096.15 454.63 1112.73 462.22 C 1121.99 466.31 1128.31 475.31 1130.66 484.98 C 1132.17 490.43 1131.84 496.14 1131.72 501.74 C 1113.17 501.68 1094.63 501.56 1076.09 501.72 C 1077.02 507.70 1079.74 513.71 1085.07 516.99 C 1095.67 524.00 1110.55 520.76 1119.18 512.05 C 1122.19 514.99 1125.12 518.05 1128.51 520.59 C 1121.96 527.16 1113.38 531.78 1104.06 532.66 C 1091.53 534.71 1077.68 531.66 1068.52 522.48 C 1056.13 510.50 1055.10 489.94 1063.76 475.55 M 1087.35 473.23 C 1080.66 476.23 1076.85 483.32 1075.99 490.36 C 1089.13 490.65 1102.27 490.48 1115.42 490.46 C 1114.85 486.76 1114.62 482.82 1112.46 479.62 C 1107.35 471.38 1095.79 468.97 1087.35 473.23 Z" />
    <path fill="#ffffff" opacity="1.00" d=" M 1157.25 460.14 C 1169.58 457.04 1183.07 459.02 1194.06 465.41 C 1192.24 469.09 1190.26 472.68 1188.24 476.25 C 1180.32 471.68 1170.21 468.67 1161.42 472.47 C 1157.15 474.15 1155.88 480.44 1159.68 483.29 C 1166.05 487.69 1173.87 489.12 1180.91 492.15 C 1186.69 494.35 1192.40 498.03 1195.14 503.78 C 1198.00 510.59 1197.01 519.29 1191.67 524.63 C 1186.33 530.21 1178.49 532.39 1171.03 533.15 C 1159.41 533.84 1147.58 530.93 1137.73 524.69 C 1140.04 521.07 1142.20 517.35 1144.60 513.79 C 1151.81 518.54 1160.34 521.49 1169.05 521.00 C 1172.99 520.59 1177.58 519.23 1179.29 515.24 C 1180.78 511.57 1178.16 507.71 1174.96 506.03 C 1167.75 502.11 1159.52 500.59 1152.25 496.84 C 1148.05 494.58 1143.87 491.54 1142.01 486.99 C 1139.39 480.53 1140.31 472.40 1145.25 467.27 C 1148.36 463.67 1152.65 461.28 1157.25 460.14 Z" />
    <path fill="#ffffff" opacity="1.00" d=" M 747.04 460.18 C 753.25 460.00 759.46 460.26 765.67 460.14 C 765.75 483.94 765.55 507.73 765.72 531.53 C 759.45 531.47 753.19 531.62 746.92 531.47 C 747.04 507.71 747.16 483.95 747.04 460.18 Z" />
  </g>
</svg>
