<svg xmlns="http://www.w3.org/2000/svg" viewBox="280 365 317 225" version="1.1" preserveAspectRatio="xMidYMid meet">
  <g id="orange-layer">
    <path fill="#dc624f" opacity="1.00" d=" M 420.13 374.49 C 438.87 370.55 458.20 368.92 477.29 370.77 C 488.98 372.30 501.71 373.49 511.22 381.20 C 471.66 381.60 432.70 393.32 398.00 412.00 C 381.11 421.31 364.94 432.68 352.91 447.95 C 343.63 459.34 337.44 474.08 339.43 488.98 C 340.52 501.37 348.75 511.45 357.53 519.58 C 345.41 516.40 333.64 511.18 324.18 502.82 C 312.42 492.71 304.34 477.72 304.39 462.02 C 304.49 447.66 310.76 433.84 320.15 423.17 C 328.98 413.66 339.97 406.55 350.98 399.85 C 372.35 387.50 395.87 378.97 420.13 374.49 Z"/>
    <path fill="#dc624f" opacity="1.00" d=" M 283.63 520.34 C 274.59 495.89 282.70 468.37 297.41 447.91 C 297.35 449.28 297.22 450.65 296.86 451.97 C 293.27 465.45 294.46 480.38 301.26 492.68 C 310.04 510.54 327.53 522.31 345.70 529.19 C 351.30 531.36 357.05 533.18 363.01 534.03 C 387.53 539.78 413.12 539.13 437.88 535.23 C 458.15 531.64 478.13 525.81 496.70 516.84 C 502.81 514.14 508.43 510.45 514.55 507.77 C 507.86 514.79 499.80 520.22 491.98 525.85 C 462.50 545.78 428.86 559.30 394.01 566.29 C 375.28 570.12 356.10 570.10 337.08 569.42 C 327.73 565.91 318.82 561.03 310.69 555.23 C 298.67 546.42 288.92 534.31 283.63 520.34 Z"/>
  </g>
  <g id="blue-layer">
    <path fill="#302d44" opacity="1.00" d=" M 433.13 422.83 C 462.77 410.49 495.05 402.36 527.33 405.70 C 531.40 408.46 536.10 410.10 540.16 412.89 C 551.32 420.00 557.93 434.05 555.07 447.15 C 551.84 462.97 540.56 475.77 528.31 485.62 C 532.48 476.98 534.71 466.41 530.61 457.33 C 527.22 449.26 519.98 443.52 512.32 439.73 C 497.05 432.49 479.68 431.64 463.07 432.54 C 438.11 434.42 413.56 441.15 391.05 452.07 C 387.36 453.78 383.94 456.09 380.06 457.38 C 394.90 442.09 413.62 431.09 433.13 422.83 Z"/>
    <path fill="#302d44" opacity="1.00" d=" M 539.61 405.85 C 543.69 406.85 547.84 407.53 551.98 408.27 C 567.87 411.91 583.70 420.73 591.44 435.63 C 597.84 447.00 598.19 460.82 595.15 473.26 C 590.91 489.52 581.87 504.22 570.62 516.56 C 551.03 538.25 525.48 553.67 498.65 564.74 C 483.26 570.88 467.22 575.25 451.02 578.68 C 425.36 583.44 398.84 584.24 373.06 579.86 C 360.77 577.62 348.45 574.69 337.08 569.42 C 356.10 570.10 375.28 570.12 394.01 566.29 C 428.86 559.30 462.50 545.78 491.98 525.85 C 499.80 520.22 507.86 514.79 514.55 507.77 C 529.79 498.12 544.01 486.44 554.69 471.77 C 561.55 461.60 567.12 449.50 565.62 436.93 C 564.83 427.20 558.96 418.46 551.01 413.02 C 547.47 410.20 543.11 408.69 539.61 405.85 Z"/> 
  </g>
</svg>